<svg width="51" height="48" viewBox="0 0 51 48" fill="none" xmlns="http://www.w3.org/2000/svg">
<rect width="51" height="48" rx="3" fill="#0047e3"/>
<g clip-path="url(#clip0_35_25)">
<path d="M46.6175 2.74169L29.3557 8.96669L29.56 6.52502C29.6489 5.45835 28.4229 4.73335 27.4279 5.26669L11.7563 13.7834C6.18603 16.8084 2.75677 22.3834 2.75677 28.4167C2.75677 37.7584 10.8324 45.3334 20.7915 45.3334C27.2235 45.3334 33.1759 42.1167 36.4008 36.8917L45.4714 22.1917C46.0489 21.2667 45.276 20.1084 44.1299 20.1917L41.5269 20.3834L48.1633 4.19169C48.2166 4.06669 48.2433 3.92502 48.2433 3.79169C48.2433 3.16669 47.7102 2.66669 47.0439 2.66669C46.8929 2.66669 46.7507 2.69169 46.6175 2.74169ZM19.8142 18.6667C22.8302 18.6667 25.7226 19.7905 27.8552 21.7909C29.9878 23.7913 31.1858 26.5044 31.1858 29.3334C31.1858 32.1623 29.9878 34.8754 27.8552 36.8758C25.7226 38.8762 22.8302 40 19.8142 40C16.7983 40 13.9058 38.8762 11.7733 36.8758C9.64066 34.8754 8.44259 32.1623 8.44259 29.3334C8.44259 26.5044 9.64066 23.7913 11.7733 21.7909C13.9058 19.7905 16.7983 18.6667 19.8142 18.6667ZM19.8142 26.6667C19.8142 25.9594 19.5147 25.2812 18.9815 24.7811C18.4484 24.281 17.7253 24 16.9713 24C16.2173 24 15.4942 24.281 14.9611 24.7811C14.4279 25.2812 14.1284 25.9594 14.1284 26.6667C14.1284 27.3739 14.4279 28.0522 14.9611 28.5523C15.4942 29.0524 16.2173 29.3334 16.9713 29.3334C17.7253 29.3334 18.4484 29.0524 18.9815 28.5523C19.5147 28.0522 19.8142 27.3739 19.8142 26.6667ZM21.2357 34.6667C21.6127 34.6667 21.9742 34.5262 22.2408 34.2762C22.5074 34.0261 22.6571 33.687 22.6571 33.3334C22.6571 32.9797 22.5074 32.6406 22.2408 32.3905C21.9742 32.1405 21.6127 32 21.2357 32C20.8587 32 20.4971 32.1405 20.2305 32.3905C19.964 32.6406 19.8142 32.9797 19.8142 33.3334C19.8142 33.687 19.964 34.0261 20.2305 34.2762C20.4971 34.5262 20.8587 34.6667 21.2357 34.6667Z" fill="white"/>
</g>
<ellipse cx="19.9865" cy="28.6667" rx="17.2297" ry="16.6667" fill="white"/>
<ellipse cx="12.4054" cy="20" rx="1.37838" ry="1.33333" fill="#0047e3"/>
<ellipse cx="17.9189" cy="25.3333" rx="2.75676" ry="2.66667" fill="#0047e3"/>
<ellipse cx="26.8784" cy="34" rx="6.2027" ry="6" fill="#0047e3"/>
<defs>
<clipPath id="clip0_35_25">
<rect x="2.75677" y="2.66669" width="45.4865" height="42.6667" rx="3" fill="white"/>
</clipPath>
</defs>
</svg>
